<svg width="181" height="36" viewBox="0 0 181 36" fill="none" xmlns="http://www.w3.org/2000/svg">
<rect x="31.1736" y="31.4468" width="149.826" height="3.56164" fill="#FFEA66"/>
<path d="M48.0712 16.4198V24H43.2283V6.03209H47.8957V13.0859H48.0361C48.3402 12.2261 48.8462 11.5564 49.5539 11.0768C50.2616 10.5913 51.1126 10.3486 52.107 10.3486C53.0603 10.3486 53.888 10.565 54.5898 10.9978C55.2975 11.4306 55.8444 12.0272 56.2304 12.7876C56.6223 13.548 56.8153 14.4195 56.8095 15.4021V24H51.9666V16.4198C51.9724 15.753 51.8057 15.2295 51.4665 14.8493C51.1331 14.4692 50.6564 14.2791 50.0364 14.2791C49.6446 14.2791 49.2995 14.3668 49.0012 14.5423C48.7087 14.7119 48.4806 14.9576 48.3168 15.2792C48.1589 15.5951 48.077 15.9753 48.0712 16.4198ZM65.6926 24.2457C64.2303 24.2457 62.9787 23.9561 61.9375 23.3771C60.8964 22.7922 60.0981 21.9792 59.5424 20.9381C58.9868 19.8911 58.7089 18.6775 58.7089 17.2971C58.7089 15.9168 58.9868 14.706 59.5424 13.6649C60.0981 12.618 60.8964 11.805 61.9375 11.2259C62.9787 10.641 64.2303 10.3486 65.6926 10.3486C67.1548 10.3486 68.4065 10.641 69.4476 11.2259C70.4887 11.805 71.2871 12.618 71.8427 13.6649C72.3984 14.706 72.6762 15.9168 72.6762 17.2971C72.6762 18.6775 72.3984 19.8911 71.8427 20.9381C71.2871 21.9792 70.4887 22.7922 69.4476 23.3771C68.4065 23.9561 67.1548 24.2457 65.6926 24.2457ZM65.7276 20.6661C66.1371 20.6661 66.4909 20.5287 66.7892 20.2538C67.0875 19.9789 67.3186 19.587 67.4823 19.0781C67.6461 18.5693 67.728 17.9639 67.728 17.262C67.728 16.5543 67.6461 15.9489 67.4823 15.4459C67.3186 14.9371 67.0875 14.5452 66.7892 14.2703C66.4909 13.9954 66.1371 13.858 65.7276 13.858C65.2948 13.858 64.9234 13.9954 64.6134 14.2703C64.3034 14.5452 64.0666 14.9371 63.9028 15.4459C63.739 15.9489 63.6571 16.5543 63.6571 17.262C63.6571 17.9639 63.739 18.5693 63.9028 19.0781C64.0666 19.587 64.3034 19.9789 64.6134 20.2538C64.9234 20.5287 65.2948 20.6661 65.7276 20.6661ZM74.6414 24V10.5241H79.2387V13.0859H79.3791C79.6598 12.2436 80.1394 11.5769 80.8179 11.0856C81.4964 10.5943 82.3035 10.3486 83.2393 10.3486C84.1869 10.3486 85.0028 10.6001 85.6871 11.1031C86.3714 11.6003 86.7838 12.2612 86.9242 13.0859H87.0645C87.2927 12.2612 87.7781 11.6003 88.5209 11.1031C89.2637 10.6001 90.1352 10.3486 91.1354 10.3486C92.428 10.3486 93.475 10.7639 94.2763 11.5944C95.0834 12.425 95.487 13.5304 95.487 14.9108V24H90.6441V16.139C90.6441 15.5483 90.4949 15.0862 90.1966 14.7528C89.8984 14.4136 89.4977 14.244 88.9947 14.244C88.4975 14.244 88.1027 14.4136 87.8103 14.7528C87.5237 15.0862 87.3804 15.5483 87.3804 16.139V24H82.748V16.139C82.748 15.5483 82.5989 15.0862 82.3006 14.7528C82.0023 14.4136 81.6016 14.244 81.0986 14.244C80.7652 14.244 80.4786 14.32 80.2388 14.4721C79.999 14.6242 79.8119 14.8435 79.6773 15.1301C79.5487 15.4108 79.4843 15.7472 79.4843 16.139V24H74.6414ZM104.333 24.2457C102.894 24.2457 101.654 23.9708 100.613 23.421C99.5776 22.8653 98.7792 22.0699 98.2177 21.0346C97.6621 19.9935 97.3843 18.7477 97.3843 17.2971C97.3843 15.9051 97.665 14.6885 98.2265 13.6474C98.788 12.6063 99.5805 11.7962 100.604 11.2172C101.628 10.6381 102.835 10.3486 104.227 10.3486C105.245 10.3486 106.166 10.5065 106.991 10.8224C107.816 11.1382 108.521 11.5973 109.106 12.1998C109.69 12.7964 110.141 13.5216 110.457 14.3756C110.772 15.2295 110.93 16.1917 110.93 17.262V18.385H98.8933V15.7179H106.473C106.468 15.3319 106.368 14.9926 106.175 14.7002C105.988 14.4019 105.734 14.1709 105.412 14.0071C105.096 13.8375 104.736 13.7527 104.333 13.7527C103.941 13.7527 103.581 13.8375 103.254 14.0071C102.926 14.1709 102.663 14.399 102.464 14.6914C102.271 14.9839 102.169 15.326 102.157 15.7179V18.5956C102.157 19.0284 102.248 19.4144 102.429 19.7537C102.61 20.0929 102.871 20.359 103.21 20.5521C103.549 20.7451 103.958 20.8416 104.438 20.8416C104.771 20.8416 105.076 20.7948 105.35 20.7012C105.631 20.6076 105.871 20.4731 106.07 20.2976C106.269 20.1163 106.415 19.8999 106.509 19.6484H110.93C110.778 20.5842 110.419 21.3972 109.851 22.0874C109.284 22.7717 108.532 23.304 107.596 23.6842C106.667 24.0585 105.579 24.2457 104.333 24.2457ZM112.836 24V6.03209H117.679V12.8753H117.749C117.925 12.4191 118.182 12.0009 118.522 11.6207C118.861 11.2347 119.282 10.9276 119.785 10.6995C120.288 10.4656 120.873 10.3486 121.54 10.3486C122.429 10.3486 123.274 10.5855 124.075 11.0592C124.882 11.533 125.537 12.2787 126.04 13.2965C126.549 14.3142 126.804 15.636 126.804 17.262C126.804 18.8178 126.561 20.1075 126.075 21.1311C125.596 22.1547 124.952 22.9179 124.145 23.421C123.344 23.924 122.464 24.1755 121.505 24.1755C120.873 24.1755 120.308 24.0731 119.811 23.8684C119.32 23.6578 118.899 23.3742 118.548 23.0174C118.203 22.6547 117.937 22.2453 117.749 21.7891H117.644V24H112.836ZM117.574 17.262C117.574 17.9171 117.659 18.4845 117.828 18.9641C118.004 19.4378 118.25 19.8063 118.565 20.0695C118.887 20.3269 119.27 20.4555 119.715 20.4555C120.159 20.4555 120.537 20.3298 120.847 20.0783C121.162 19.8209 121.402 19.4554 121.566 18.9816C121.736 18.502 121.82 17.9288 121.82 17.262C121.82 16.5953 121.736 16.025 121.566 15.5512C121.402 15.0716 121.162 14.706 120.847 14.4545C120.537 14.1972 120.159 14.0685 119.715 14.0685C119.27 14.0685 118.887 14.1972 118.565 14.4545C118.25 14.706 118.004 15.0716 117.828 15.5512C117.659 16.025 117.574 16.5953 117.574 17.262ZM137.569 18.1043V10.5241H142.412V24H137.814V21.4382H137.674C137.381 22.298 136.87 22.9706 136.139 23.456C135.407 23.9357 134.539 24.1755 133.533 24.1755C132.591 24.1755 131.766 23.9591 131.059 23.5262C130.357 23.0934 129.81 22.4968 129.418 21.7365C129.032 20.9761 128.836 20.1046 128.83 19.122V10.5241H133.673V18.1043C133.679 18.7711 133.849 19.2945 134.182 19.6747C134.521 20.0549 134.995 20.245 135.603 20.245C136.007 20.245 136.355 20.1602 136.647 19.9906C136.946 19.8151 137.174 19.5694 137.332 19.2536C137.495 18.9319 137.574 18.5488 137.569 18.1043ZM145.015 24V21.3329L150.911 14.2791V14.2089H145.226V10.5241H156.631V13.4719L151.262 20.245V20.3152H156.842V24H145.015ZM159.66 24V21.3329L165.556 14.2791V14.2089H159.871V10.5241H171.276V13.4719L165.907 20.245V20.3152H171.487V24H159.66Z" fill="white"/>
<path d="M0 17.3992C0 7.78989 7.78989 0 17.3992 0C27.0085 0 34.7984 7.78989 34.7984 17.3992V33.7559C34.7984 34.4651 34.2234 35.0401 33.5142 35.0401H1.28419C0.574954 35.0401 0 34.4651 0 33.7559V17.3992Z" fill="#FFCE3A"/>
<circle cx="17.3992" cy="17.6409" r="13.0494" fill="url(#paint0_linear_107_10)"/>
<circle cx="17.3992" cy="17.6409" r="10.8745" fill="url(#paint1_linear_107_10)"/>
<circle cx="17.3992" cy="17.6409" r="8.94126" fill="#1B1E1F"/>
<rect x="179.308" y="26.0988" width="1.69159" height="8.94126" fill="white"/>
<defs>
<linearGradient id="paint0_linear_107_10" x1="17.3992" y1="4.59146" x2="17.3992" y2="30.6903" gradientUnits="userSpaceOnUse">
<stop stop-color="#DEA700"/>
<stop offset="1" stop-color="#FFC518"/>
</linearGradient>
<linearGradient id="paint1_linear_107_10" x1="17.3992" y1="6.76636" x2="17.3992" y2="28.5154" gradientUnits="userSpaceOnUse">
<stop stop-color="#FFC518"/>
<stop offset="1" stop-color="#DEA700"/>
</linearGradient>
</defs>
</svg>
